<svg width="523" height="209" viewBox="0 0 523 209" fill="none" xmlns="http://www.w3.org/2000/svg">
<path d="M268.987 84.287H246.18V100.791H266.287V107.467H246.18V123.858H268.987V130.61H238V77.5717H268.987V84.287ZM300.498 92.728C308.919 92.728 314.48 97.2663 314.48 105.593V130.611H306.703V107.206C306.703 101.092 302.794 98.7292 298.282 98.7292C292.962 98.7292 288.61 101.73 288.57 108.669V130.611H280.834V93.4781H288.57V98.054C291.149 94.6783 295.34 92.728 300.498 92.728ZM356.226 93.4781H363.68V128.548C363.68 141.564 356.145 148.24 343.976 148.24C333.741 148.24 327.455 144.002 324.352 136.837L330.799 133.987C333.096 139.5 337.246 142.351 343.694 142.351C351.833 142.351 355.943 137.325 355.943 128.998V122.509C353.526 126.635 348.207 129.523 342.243 129.523C332.29 129.523 324.03 121.946 324.03 111.069C324.03 100.192 332.371 92.7276 342.324 92.7276C348.408 92.7276 353.687 95.6532 356.064 100.004L356.226 93.4781ZM344.017 123.447C351.068 123.447 356.548 117.784 356.548 111.069C356.548 104.355 351.108 98.6916 344.017 98.6916C337.086 98.6916 331.565 103.943 331.565 111.069C331.565 118.121 337.166 123.447 344.017 123.447ZM397.126 131.324C385.238 131.324 376.535 126.035 374.6 117.033L382.78 115.233C384.07 121.422 389.832 124.985 397.407 124.985C403.492 124.985 409.335 122.66 409.214 116.283C409.133 109.982 401.799 108.257 394.023 106.269C385.198 104.018 376.374 101.43 376.374 91.6783C376.374 81.8135 385.117 76.8627 395.473 76.8627C405.507 76.8627 414.533 80.8011 416.669 89.9153L408.891 91.7532C407.481 85.8645 402.202 83.2389 395.836 83.2389C390.114 83.2389 384.432 85.5644 384.432 91.6031C384.432 97.0793 390.799 98.692 398.011 100.493C407.078 102.781 417.474 105.406 417.474 116.058C417.474 126.786 407.803 131.324 397.126 131.324ZM446.044 131.324C434.398 131.324 425.614 123.935 425.614 112.007C425.614 100.117 434.318 92.7281 446.044 92.7281C457.77 92.7281 466.433 100.117 466.433 112.007C466.433 123.935 457.729 131.324 446.044 131.324ZM445.963 125.398C453.256 125.398 458.777 120.146 458.777 112.007C458.777 103.905 453.256 98.6543 445.963 98.6543C438.75 98.6543 433.31 103.905 433.31 112.007C433.31 120.146 438.75 125.398 445.963 125.398ZM496.01 78.9636C491.617 78.9636 486.863 78.8886 486.863 86.4279V93.4792H496.01V99.1429H486.863V130.612H479.167V99.1429H471.47V93.4792H479.167V86.3153C479.167 74.688 486.259 73 496.01 73V78.9636ZM516.963 130.611C510.234 130.611 506.083 126.86 506.083 120.259V99.1421H497.944V93.4784H500.885C505.036 93.4784 506.728 91.8656 506.728 87.5521V81.1383H513.86V93.4784H522.886V99.1421H513.86V119.509C513.86 123.072 516.076 124.947 519.219 124.947H522.886V130.611H516.963Z" fill="#8257E5"/>
<path d="M107.908 205.691C50.1795 205.691 3.21466 159.555 3.21466 102.845C3.21466 46.1358 50.1795 0 107.908 0C165.637 0 212.602 46.1358 212.602 102.845C212.602 159.555 165.637 205.691 107.908 205.691ZM107.908 4.76511C52.8547 4.76511 8.0654 48.7637 8.0654 102.845C8.0654 156.927 52.8547 200.926 107.908 200.926C162.962 200.926 207.751 156.927 207.751 102.845C207.751 48.7637 162.962 4.76511 107.908 4.76511Z" fill="#8257E5"/>
<path d="M95.0876 94.6257L94.8281 92.8578C138.965 86.6084 163.333 61.825 171.761 51.4609L173.182 52.576C164.618 63.1045 139.867 88.2857 95.0876 94.6257Z" fill="#8257E5"/>
<path d="M95.2793 100.305C99.0567 100.305 102.119 97.2973 102.119 93.5866C102.119 89.8759 99.0567 86.8678 95.2793 86.8678C91.5019 86.8678 88.4398 89.8759 88.4398 93.5866C88.4398 97.2973 91.5019 100.305 95.2793 100.305Z" fill="#8257E5"/>
<path d="M172.214 58.9754C175.992 58.9754 179.054 55.9673 179.054 52.2566C179.054 48.546 175.992 45.5378 172.214 45.5378C168.437 45.5378 165.375 48.546 165.375 52.2566C165.375 55.9673 168.437 58.9754 172.214 58.9754Z" fill="#8257E5"/>
<path d="M68.7967 176.698C60.3467 166.245 46.9393 144.44 52.0738 115.818L53.8637 116.131C48.8529 144.061 61.9596 165.368 70.2179 175.585L68.7967 176.698Z" fill="#8257E5"/>
<path d="M52.9613 123.033C56.7387 123.033 59.8009 120.025 59.8009 116.314C59.8009 112.603 56.7387 109.595 52.9613 109.595C49.184 109.595 46.1218 112.603 46.1218 116.314C46.1218 120.025 49.184 123.033 52.9613 123.033Z" fill="#8257E5"/>
<path d="M69.2963 182.587C73.0736 182.587 76.1358 179.579 76.1358 175.868C76.1358 172.158 73.0736 169.149 69.2963 169.149C65.5189 169.149 62.4567 172.158 62.4567 175.868C62.4567 179.579 65.5189 182.587 69.2963 182.587Z" fill="#8257E5"/>
<path d="M177.16 122.583L175.341 122.533C175.976 100.196 167.284 78.8175 150.861 62.3373C133.763 45.1734 109.895 35.4335 85.3134 35.5741L85.3013 33.7872C110.334 33.6919 134.721 43.5795 152.161 61.0865C168.93 77.9168 177.807 99.7577 177.16 122.583Z" fill="#8257E5"/>
<path d="M176.129 128.937C179.906 128.937 182.969 125.929 182.969 122.218C182.969 118.507 179.906 115.499 176.129 115.499C172.352 115.499 169.289 118.507 169.289 122.218C169.289 125.929 172.352 128.937 176.129 128.937Z" fill="#8257E5"/>
<path d="M85.6409 41.5233C89.4182 41.5233 92.4804 38.5152 92.4804 34.8045C92.4804 31.0938 89.4182 28.0857 85.6409 28.0857C81.8635 28.0857 78.8013 31.0938 78.8013 34.8045C78.8013 38.5152 81.8635 41.5233 85.6409 41.5233Z" fill="#8257E5"/>
<path d="M121.003 172.085C66.136 169.426 28.9381 134.135 12.4189 101.995C0.275111 78.3645 -1.62395 55.3395 7.46391 41.9019C13.3284 33.2294 23.4107 29.1291 36.5902 30.0297L36.464 31.8118C23.9394 30.9517 14.4587 34.7876 8.97734 42.8907C0.250858 55.7946 2.19115 78.131 14.0415 101.189C30.3279 132.882 67.0043 167.677 121.092 170.298L121.003 172.085Z" fill="#8257E5"/>
<path d="M120.707 177.793C124.484 177.793 127.546 174.785 127.546 171.074C127.546 167.364 124.484 164.356 120.707 164.356C116.929 164.356 113.867 167.364 113.867 171.074C113.867 174.785 116.929 177.793 120.707 177.793Z" fill="#8257E5"/>
<path d="M43.8153 182.106C18.4605 178.022 1.2889 160.053 0.0665185 136.325C-1.10736 113.5 13.195 86.3653 47.7954 77.1948L48.2683 78.9198C14.6478 87.8305 0.745622 114.124 1.88555 136.235C2.82174 154.423 14.4053 175.559 44.1112 180.343L43.8153 182.106Z" fill="#8257E5"/>
<path d="M47.708 84.8808C51.4854 84.8808 54.5476 81.8727 54.5476 78.162C54.5476 74.4513 51.4854 71.4432 47.708 71.4432C43.9307 71.4432 40.8685 74.4513 40.8685 78.162C40.8685 81.8727 43.9307 84.8808 47.708 84.8808Z" fill="#8257E5"/>
<path d="M162.299 209C161.511 209 160.713 208.964 159.903 208.89C144.536 207.487 130.617 193.542 122.664 171.584L124.379 170.984C132.087 192.27 145.429 205.774 160.071 207.111C167.953 207.847 174.931 204.726 178.312 199.017C181.812 193.111 180.8 185.47 175.535 178.06L177.026 177.036C182.714 185.041 183.752 193.38 179.883 199.915C176.493 205.638 169.891 209 162.299 209Z" fill="#8257E5"/>
<path d="M139.603 28.8052L137.874 28.2477C142.006 15.937 149.307 8.00549 157.907 6.49257C163.202 5.55385 168.407 7.32885 171.477 11.11C174.511 14.8458 175.001 19.8754 172.826 24.9049L171.155 24.2069C173.061 19.7991 172.661 15.4319 170.058 12.225C167.405 8.95852 162.872 7.43606 158.23 8.25328C150.306 9.64469 143.52 17.1378 139.603 28.8052Z" fill="#8257E5"/>
<path d="M138.883 34.9353C142.66 34.9353 145.722 31.9272 145.722 28.2165C145.722 24.5058 142.66 21.4977 138.883 21.4977C135.105 21.4977 132.043 24.5058 132.043 28.2165C132.043 31.9272 135.105 34.9353 138.883 34.9353Z" fill="#8257E5"/>
</svg>
