<svg width="179" height="160" viewBox="0 0 179 160" fill="none" xmlns="http://www.w3.org/2000/svg">
<path d="M170.932 77.9135C172.302 77.9042 173.642 77.5114 174.801 76.7797C175.959 76.0479 176.89 75.0063 177.487 73.7729C178.084 72.5395 178.324 71.1636 178.179 69.801C178.034 68.4384 177.511 67.1435 176.668 66.063C175.825 64.9826 174.697 64.1597 173.41 63.6875C172.124 63.2154 170.731 63.1129 169.39 63.3917C168.048 63.6704 166.811 64.3193 165.819 65.2648C164.828 66.2103 164.12 67.4146 163.778 68.7414H120.852C120.124 64.8182 118.628 61.0776 116.45 57.7348H149.102C149.549 59.464 150.611 60.9711 152.089 61.9734C153.567 62.9758 155.36 63.4046 157.132 63.1796C158.903 62.9546 160.532 62.0911 161.713 60.751C162.893 59.411 163.545 57.6863 163.545 55.9004C163.545 54.1144 162.893 52.3898 161.713 51.0497C160.532 49.7097 158.903 48.8462 157.132 48.6212C155.36 48.3961 153.567 48.825 152.089 49.8273C150.611 50.8297 149.549 52.3367 149.102 54.066H113.698L113.148 53.3322V16.4603H139.013C139.439 18.203 140.489 19.7293 141.964 20.7505C143.439 21.7717 145.237 22.2172 147.018 22.0026C148.8 21.788 150.44 20.9283 151.631 19.5859C152.821 18.2436 153.478 16.5116 153.478 14.7176C153.478 12.9235 152.821 11.1915 151.631 9.8492C150.44 8.50686 148.8 7.64712 147.018 7.43253C145.237 7.21795 143.439 7.66337 141.964 8.6846C140.489 9.70583 139.439 11.2321 139.013 12.9749H111.313C110.827 12.9749 110.36 13.1681 110.016 13.5121C109.672 13.8562 109.479 14.3228 109.479 14.8093V50.2137C105.647 47.3174 101.184 45.3687 96.4543 44.527C96.5442 44.3544 96.6061 44.1686 96.6377 43.9766V29.1178C98.367 28.6713 99.874 27.6095 100.876 26.1313C101.879 24.6532 102.308 22.8602 102.083 21.0885C101.857 19.3168 100.994 17.688 99.6539 16.5074C98.3139 15.3267 96.5892 14.6754 94.8033 14.6754C93.0173 14.6754 91.2927 15.3267 89.9526 16.5074C88.6126 17.688 87.7491 19.3168 87.5241 21.0885C87.299 22.8602 87.7279 24.6532 88.7303 26.1313C89.7326 27.6095 91.2396 28.6713 92.9689 29.1178V43.9766H90.951C87.9078 43.9585 84.8787 44.3912 81.9623 45.2607V14.4424C83.6916 13.9959 85.1986 12.9341 86.2009 11.4559C87.2033 9.9778 87.6322 8.18483 87.4071 6.41312C87.1821 4.6414 86.3186 3.01258 84.9785 1.83197C83.6385 0.651353 81.9138 0 80.1279 0C78.342 0 76.6173 0.651353 75.2773 1.83197C73.9372 3.01258 73.0737 4.6414 72.8487 6.41312C72.6236 8.18483 73.0525 9.9778 74.0549 11.4559C75.0572 12.9341 76.5642 13.9959 78.2935 14.4424V45.8111C78.2743 46.1275 78.3375 46.4435 78.4769 46.7283C74.1191 48.6794 70.2847 51.6338 67.2869 55.3501V29.1178C69.0162 28.6713 70.5232 27.6095 71.5256 26.1313C72.5279 24.6532 72.9568 22.8602 72.7317 21.0885C72.5067 19.3168 71.6432 17.688 70.3032 16.5074C68.9631 15.3267 67.2385 14.6754 65.4525 14.6754C63.6666 14.6754 61.9419 15.3267 60.6019 16.5074C59.2618 17.688 58.3983 19.3168 58.1733 21.0885C57.9483 22.8602 58.3771 24.6532 59.3795 26.1313C60.3818 27.6095 61.8888 28.6713 63.6181 29.1178V56.8176H20.5091V31.1357C22.2519 30.7096 23.7781 29.6597 24.7994 28.1847C25.8206 26.7096 26.266 24.9115 26.0514 23.1303C25.8368 21.349 24.9771 19.7082 23.6348 18.5178C22.2924 17.3275 20.5605 16.6702 18.7664 16.6702C16.9723 16.6702 15.2404 17.3275 13.898 18.5178C12.5557 19.7082 11.696 21.349 11.4814 23.1303C11.2668 24.9115 11.7122 26.7096 12.7335 28.1847C13.7547 29.6597 15.2809 30.7096 17.0237 31.1357V58.652C17.0237 59.1385 17.217 59.6051 17.561 59.9492C17.905 60.2932 18.3716 60.4864 18.8581 60.4864H63.8015L63.0678 62.1374C59.0634 62.2743 55.1521 63.3807 51.6694 65.3616C48.1868 67.3426 45.2368 70.139 43.0725 73.5109H29.4978C29.0513 71.7816 27.9895 70.2746 26.5113 69.2722C25.0332 68.2699 23.2402 67.841 21.4685 68.0661C19.6968 68.2911 18.068 69.1546 16.8874 70.4946C15.7068 71.8347 15.0554 73.5593 15.0554 75.3453C15.0554 77.1312 15.7068 78.8559 16.8874 80.1959C18.068 81.536 19.6968 82.3995 21.4685 82.6245C23.2402 82.8495 25.0332 82.4207 26.5113 81.4183C27.9895 80.416 29.0513 78.9089 29.4978 77.1797H41.2381C39.8864 80.3062 39.1993 83.6795 39.2202 87.0856C39.2202 87.4525 39.2202 87.8194 39.2202 88.1863H14.8224C14.3759 86.457 13.3141 84.95 11.8359 83.9476C10.3578 82.9453 8.56483 82.5164 6.79312 82.7415C5.02141 82.9665 3.39259 83.83 2.21197 85.17C1.03136 86.5101 0.380005 88.2347 0.380005 90.0207C0.380005 91.8066 1.03136 93.5313 2.21197 94.8713C3.39259 96.2114 5.02141 97.0749 6.79312 97.2999C8.56483 97.5249 10.3578 97.0961 11.8359 96.0937C13.3141 95.0914 14.3759 93.5843 14.8224 91.8551H39.4037C40.1756 95.8934 41.9408 99.6761 44.5401 102.862H29.4978C29.0513 101.132 27.9895 99.6254 26.5113 98.623C25.0332 97.6207 23.2402 97.1918 21.4685 97.4169C19.6968 97.6419 18.068 98.5054 16.8874 99.8454C15.7068 101.185 15.0554 102.91 15.0554 104.696C15.0554 106.482 15.7068 108.207 16.8874 109.547C18.068 110.887 19.6968 111.75 21.4685 111.975C23.2402 112.2 25.0332 111.771 26.5113 110.769C27.9895 109.767 29.0513 108.26 29.4978 106.53H48.3924C52.7569 110.058 58.19 111.998 63.8015 112.034V139.55H37.7527C37.3266 137.807 36.2768 136.281 34.8017 135.26C33.3266 134.239 31.5285 133.793 29.7473 134.008C27.9661 134.222 26.3252 135.082 25.1349 136.424C23.9446 137.767 23.2873 139.499 23.2873 141.293C23.2873 143.087 23.9446 144.819 25.1349 146.161C26.3252 147.504 27.9661 148.363 29.7473 148.578C31.5285 148.792 33.3266 148.347 34.8017 147.326C36.2768 146.305 37.3266 144.778 37.7527 143.036H65.4525C65.939 143.036 66.4056 142.842 66.7496 142.498C67.0937 142.154 67.2869 141.688 67.2869 141.201V111.85H80.1279V130.378C78.3987 130.824 76.8916 131.886 75.8893 133.364C74.8869 134.843 74.4581 136.636 74.6831 138.407C74.9081 140.179 75.7716 141.808 77.1117 142.988C78.4517 144.169 80.1764 144.82 81.9623 144.82C83.7483 144.82 85.4729 144.169 86.813 142.988C88.153 141.808 89.0165 140.179 89.2415 138.407C89.4666 136.636 89.0377 134.843 88.0354 133.364C87.033 131.886 85.526 130.824 83.7968 130.378V111.85H94.8033V145.053C93.0741 145.5 91.567 146.562 90.5647 148.04C89.5623 149.518 89.1335 151.311 89.3585 153.083C89.5835 154.854 90.447 156.483 91.7871 157.664C93.1271 158.844 94.8518 159.496 96.6377 159.496C98.4237 159.496 100.148 158.844 101.488 157.664C102.828 156.483 103.692 154.854 103.917 153.083C104.142 151.311 103.713 149.518 102.711 148.04C101.708 146.562 100.201 145.5 98.4721 145.053V111.85H109.479V130.378C107.749 130.824 106.242 131.886 105.24 133.364C104.238 134.843 103.809 136.636 104.034 138.407C104.259 140.179 105.122 141.808 106.462 142.988C107.803 144.169 109.527 144.82 111.313 144.82C113.099 144.82 114.824 144.169 116.164 142.988C117.504 141.808 118.367 140.179 118.592 138.407C118.817 136.636 118.389 134.843 117.386 133.364C116.384 131.886 114.877 130.824 113.148 130.378V111.85H119.751C122.874 111.829 125.947 111.071 128.721 109.636C131.494 108.202 133.89 106.132 135.711 103.595H161.76V129.277C160.017 129.703 158.491 130.753 157.47 132.228C156.448 133.703 156.003 135.502 156.217 137.283C156.432 139.064 157.292 140.705 158.634 141.895C159.976 143.086 161.708 143.743 163.502 143.743C165.297 143.743 167.029 143.086 168.371 141.895C169.713 140.705 170.573 139.064 170.788 137.283C171.002 135.502 170.557 133.703 169.535 132.228C168.514 130.753 166.988 129.703 165.245 129.277V101.761C165.245 101.274 165.052 100.808 164.708 100.464C164.364 100.12 163.897 99.9266 163.411 99.9266H137.729C139.531 95.8921 139.918 91.3678 138.829 87.0856H149.102C149.549 88.8148 150.611 90.3219 152.089 91.3242C153.567 92.3266 155.36 92.7554 157.132 92.5304C158.903 92.3054 160.532 91.4419 161.713 90.1018C162.893 88.7618 163.545 87.0371 163.545 85.2512C163.545 83.4652 162.893 81.7406 161.713 80.4005C160.532 79.0605 158.903 78.197 157.132 77.972C155.36 77.7469 153.567 78.1758 152.089 79.1781C150.611 80.1805 149.549 81.6875 149.102 83.4168H137.729C136.41 80.632 134.466 78.1896 132.047 76.2804C129.629 74.3711 126.802 73.0466 123.787 72.4102H163.778C164.186 73.9935 165.112 75.395 166.409 76.392C167.705 77.389 169.297 77.9245 170.932 77.9135ZM156.257 52.2315C156.982 52.2315 157.691 52.4467 158.295 52.8498C158.898 53.253 159.368 53.826 159.646 54.4964C159.924 55.1668 159.996 55.9045 159.855 56.6161C159.713 57.3278 159.364 57.9816 158.851 58.4947C158.338 59.0078 157.684 59.3572 156.972 59.4987C156.261 59.6403 155.523 59.5676 154.853 59.29C154.182 59.0123 153.609 58.542 153.206 57.9387C152.803 57.3354 152.588 56.626 152.588 55.9004C152.588 54.9273 152.974 53.9942 153.662 53.3061C154.35 52.6181 155.283 52.2315 156.257 52.2315ZM146.167 10.957C146.893 10.957 147.602 11.1722 148.205 11.5753C148.809 11.9784 149.279 12.5514 149.557 13.2218C149.834 13.8922 149.907 14.6299 149.766 15.3416C149.624 16.0533 149.275 16.707 148.761 17.2201C148.248 17.7332 147.595 18.0826 146.883 18.2242C146.171 18.3658 145.434 18.2931 144.763 18.0154C144.093 17.7377 143.52 17.2675 143.117 16.6641C142.713 16.0608 142.498 15.3515 142.498 14.6258C142.498 13.6528 142.885 12.7196 143.573 12.0316C144.261 11.3435 145.194 10.957 146.167 10.957ZM91.1344 21.9635C91.1344 21.2379 91.3496 20.5286 91.7528 19.9252C92.1559 19.3219 92.7289 18.8516 93.3993 18.574C94.0697 18.2963 94.8074 18.2236 95.5191 18.3652C96.2307 18.5067 96.8845 18.8562 97.3976 19.3693C97.9107 19.8824 98.2601 20.5361 98.4016 21.2478C98.5432 21.9595 98.4706 22.6971 98.1929 23.3675C97.9152 24.0379 97.4449 24.6109 96.8416 25.0141C96.2383 25.4172 95.5289 25.6324 94.8033 25.6324C93.8303 25.6324 92.8971 25.2458 92.209 24.5578C91.521 23.8698 91.1344 22.9366 91.1344 21.9635ZM76.4591 7.28814C76.4591 6.56251 76.6742 5.85317 77.0774 5.24983C77.4805 4.6465 78.0535 4.17625 78.7239 3.89856C79.3943 3.62088 80.132 3.54822 80.8437 3.68978C81.5553 3.83135 82.2091 4.18077 82.7222 4.69387C83.2353 5.20697 83.5847 5.86069 83.7263 6.57238C83.8678 7.28407 83.7952 8.02175 83.5175 8.69214C83.2398 9.36254 82.7695 9.93554 82.1662 10.3387C81.5629 10.7418 80.8535 10.957 80.1279 10.957C79.1549 10.957 78.2217 10.5704 77.5336 9.8824C76.8456 9.19436 76.4591 8.26118 76.4591 7.28814ZM15.0058 23.798C15.0058 23.0723 15.221 22.363 15.6242 21.7597C16.0273 21.1563 16.6003 20.6861 17.2707 20.4084C17.9411 20.1307 18.6788 20.058 19.3904 20.1996C20.1021 20.3412 20.7559 20.6906 21.269 21.2037C21.7821 21.7168 22.1315 22.3705 22.273 23.0822C22.4146 23.7939 22.3419 24.5316 22.0643 25.202C21.7866 25.8724 21.3163 26.4454 20.713 26.8485C20.1097 27.2516 19.4003 27.4668 18.6747 27.4668C17.7016 27.4668 16.7685 27.0803 16.0804 26.3922C15.3924 25.7042 15.0058 24.771 15.0058 23.798ZM22.3435 78.8307C21.6179 78.8307 20.9086 78.6155 20.3052 78.2124C19.7019 77.8092 19.2316 77.2362 18.954 76.5658C18.6763 75.8955 18.6036 75.1578 18.7452 74.4461C18.8867 73.7344 19.2362 73.0807 19.7493 72.5676C20.2624 72.0545 20.9161 71.7051 21.6278 71.5635C22.3395 71.4219 23.0771 71.4946 23.7475 71.7723C24.4179 72.05 24.9909 72.5202 25.3941 73.1235C25.7972 73.7269 26.0124 74.4362 26.0124 75.1618C26.0124 76.1349 25.6258 77.0681 24.9378 77.7561C24.2498 78.4442 23.3166 78.8307 22.3435 78.8307ZM7.66814 93.5061C6.94251 93.5061 6.23318 93.2909 5.62984 92.8878C5.0265 92.4846 4.55625 91.9116 4.27857 91.2412C4.00088 90.5708 3.92823 89.8332 4.06979 89.1215C4.21135 88.4098 4.56078 87.7561 5.07387 87.243C5.58697 86.7299 6.2407 86.3804 6.95239 86.2389C7.66407 86.0973 8.40176 86.17 9.07215 86.4477C9.74254 86.7253 10.3155 87.1956 10.7187 87.7989C11.1218 88.4023 11.337 89.1116 11.337 89.8372C11.337 90.8103 10.9505 91.7435 10.2624 92.4315C9.57437 93.1195 8.64118 93.5061 7.66814 93.5061ZM30.5984 144.87C29.8728 144.87 29.1635 144.655 28.5601 144.252C27.9568 143.849 27.4866 143.276 27.2089 142.605C26.9312 141.935 26.8585 141.197 27.0001 140.485C27.1417 139.774 27.4911 139.12 28.0042 138.607C28.5173 138.094 29.171 137.744 29.8827 137.603C30.5944 137.461 31.3321 137.534 32.0025 137.812C32.6728 138.089 33.2458 138.559 33.649 139.163C34.0521 139.766 34.2673 140.475 34.2673 141.201C34.2673 142.174 33.8808 143.107 33.1927 143.795C32.5047 144.483 31.5715 144.87 30.5984 144.87ZM85.6312 137.532C85.6312 138.258 85.416 138.967 85.0129 139.571C84.6097 140.174 84.0367 140.644 83.3663 140.922C82.6959 141.2 81.9583 141.272 81.2466 141.131C80.5349 140.989 79.8812 140.64 79.3681 140.127C78.855 139.613 78.5055 138.96 78.364 138.248C78.2224 137.536 78.2951 136.799 78.5728 136.128C78.8504 135.458 79.3207 134.885 79.924 134.482C80.5274 134.079 81.2367 133.863 81.9623 133.863C82.9354 133.863 83.8686 134.25 84.5566 134.938C85.2446 135.626 85.6312 136.559 85.6312 137.532ZM100.307 152.208C100.307 152.933 100.091 153.643 99.6883 154.246C99.2851 154.849 98.7121 155.32 98.0417 155.597C97.3713 155.875 96.6336 155.948 95.922 155.806C95.2103 155.664 94.5565 155.315 94.0434 154.802C93.5304 154.289 93.1809 153.635 93.0394 152.923C92.8978 152.212 92.9705 151.474 93.2481 150.804C93.5258 150.133 93.9961 149.56 94.5994 149.157C95.2028 148.754 95.9121 148.539 96.6377 148.539C97.6108 148.539 98.5439 148.925 99.232 149.613C99.92 150.301 100.307 151.235 100.307 152.208ZM114.982 137.532C114.982 138.258 114.767 138.967 114.364 139.571C113.961 140.174 113.388 140.644 112.717 140.922C112.047 141.2 111.309 141.272 110.597 141.131C109.886 140.989 109.232 140.64 108.719 140.127C108.206 139.613 107.856 138.96 107.715 138.248C107.573 137.536 107.646 136.799 107.924 136.128C108.201 135.458 108.671 134.885 109.275 134.482C109.878 134.079 110.587 133.863 111.313 133.863C112.286 133.863 113.219 134.25 113.907 134.938C114.595 135.626 114.982 136.559 114.982 137.532ZM167.263 136.615C167.263 137.341 167.048 138.05 166.645 138.653C166.242 139.257 165.669 139.727 164.998 140.005C164.328 140.282 163.59 140.355 162.878 140.213C162.167 140.072 161.513 139.722 161 139.209C160.487 138.696 160.137 138.043 159.996 137.331C159.854 136.619 159.927 135.881 160.205 135.211C160.482 134.541 160.953 133.968 161.556 133.565C162.159 133.161 162.869 132.946 163.594 132.946C164.567 132.946 165.5 133.333 166.188 134.021C166.877 134.709 167.263 135.642 167.263 136.615ZM156.257 81.5823C156.982 81.5823 157.691 81.7975 158.295 82.2006C158.898 82.6038 159.368 83.1768 159.646 83.8472C159.924 84.5176 159.996 85.2552 159.855 85.9669C159.713 86.6786 159.364 87.3323 158.851 87.8454C158.338 88.3585 157.684 88.708 156.972 88.8495C156.261 88.9911 155.523 88.9184 154.853 88.6407C154.182 88.3631 153.609 87.8928 153.206 87.2895C152.803 86.6861 152.588 85.9768 152.588 85.2512C152.588 84.2781 152.974 83.3449 153.662 82.6569C154.35 81.9689 155.283 81.5823 156.257 81.5823ZM170.932 66.9069C171.658 66.9069 172.367 67.1221 172.97 67.5252C173.574 67.9284 174.044 68.5014 174.321 69.1718C174.599 69.8422 174.672 70.5799 174.53 71.2915C174.389 72.0032 174.039 72.657 173.526 73.1701C173.013 73.6831 172.359 74.0326 171.648 74.1741C170.936 74.3157 170.198 74.243 169.528 73.9654C168.858 73.6877 168.285 73.2174 167.881 72.6141C167.478 72.0107 167.263 71.3014 167.263 70.5758C167.263 69.6027 167.65 68.6696 168.338 67.9815C169.026 67.2935 169.959 66.9069 170.932 66.9069ZM61.7837 21.9635C61.7837 21.2379 61.9988 20.5286 62.402 19.9252C62.8051 19.3219 63.3781 18.8516 64.0485 18.574C64.7189 18.2963 65.4566 18.2236 66.1683 18.3652C66.88 18.5067 67.5337 18.8562 68.0468 19.3693C68.5599 19.8824 68.9093 20.5361 69.0509 21.2478C69.1924 21.9595 69.1198 22.6971 68.8421 23.3675C68.5644 24.0379 68.0942 24.6109 67.4908 25.0141C66.8875 25.4172 66.1781 25.6324 65.4525 25.6324C64.4795 25.6324 63.5463 25.2458 62.8582 24.5578C62.1702 23.8698 61.7837 22.9366 61.7837 21.9635ZM22.3435 108.181C21.6179 108.181 20.9086 107.966 20.3052 107.563C19.7019 107.16 19.2316 106.587 18.954 105.917C18.6763 105.246 18.6036 104.509 18.7452 103.797C18.8867 103.085 19.2362 102.431 19.7493 101.918C20.2624 101.405 20.9161 101.056 21.6278 100.914C22.3395 100.773 23.0771 100.845 23.7475 101.123C24.4179 101.401 24.9909 101.871 25.3941 102.474C25.7972 103.078 26.0124 103.787 26.0124 104.513C26.0124 105.486 25.6258 106.419 24.9378 107.107C24.2498 107.795 23.3166 108.181 22.3435 108.181ZM135.894 91.8551C135.847 96.1217 134.131 100.2 131.114 103.217C128.096 106.234 124.018 107.95 119.751 107.998H63.8015C58.1822 107.998 52.7931 105.766 48.8196 101.792C44.8462 97.8189 42.6139 92.4297 42.6139 86.8104C42.6139 81.1911 44.8462 75.802 48.8196 71.8285C52.7931 67.8551 58.1822 65.6228 63.8015 65.6228H63.985C64.3964 65.6967 64.8207 65.6279 65.1877 65.4277C65.5546 65.2276 65.8422 64.9081 66.0028 64.5222C68.3316 58.8153 72.5451 54.0785 77.9417 51.1005C83.3382 48.1226 89.5921 47.0833 95.6618 48.1556C101.732 49.228 107.251 52.3474 111.3 56.9943C115.349 61.6411 117.685 67.535 117.917 73.6943C117.917 74.1808 118.11 74.6474 118.454 74.9914C118.798 75.3355 119.265 75.5287 119.751 75.5287C124.05 75.577 128.155 77.3184 131.178 80.375C134.2 83.4316 135.895 87.5567 135.894 91.8551Z" fill="#111111"/>
</svg>
