<svg width="158" height="158" viewBox="0 0 158 158" fill="none" xmlns="http://www.w3.org/2000/svg">
<path d="M79.7591 154.766C37.0897 154.766 2.3761 120.053 2.3761 77.383C2.3761 34.7136 37.0897 0 79.7591 0C122.429 0 157.142 34.7136 157.142 77.383C157.142 120.053 122.429 154.766 79.7591 154.766ZM79.7591 3.58537C39.067 3.58537 5.96147 36.6909 5.96147 77.383C5.96147 118.075 39.067 151.181 79.7591 151.181C120.451 151.181 153.557 118.075 153.557 77.383C153.557 36.6909 120.451 3.58537 79.7591 3.58537Z" fill="#8257E5"/>
<path d="M70.283 71.1983L70.0912 69.8681C102.714 65.1659 120.726 46.5184 126.955 38.7202L128.006 39.5592C121.676 47.4811 103.381 66.428 70.283 71.1983Z" fill="#8257E5"/>
<path d="M70.4246 75.4721C73.2166 75.4721 75.48 73.2087 75.48 70.4167C75.48 67.6247 73.2166 65.3613 70.4246 65.3613C67.6326 65.3613 65.3693 67.6247 65.3693 70.4167C65.3693 73.2087 67.6326 75.4721 70.4246 75.4721Z" fill="#8257E5"/>
<path d="M127.29 44.3744C130.082 44.3744 132.346 42.111 132.346 39.319C132.346 36.527 130.082 34.2636 127.29 34.2636C124.498 34.2636 122.235 36.527 122.235 39.319C122.235 42.111 124.498 44.3744 127.29 44.3744Z" fill="#8257E5"/>
<path d="M50.8503 132.951C44.6046 125.086 34.6946 108.68 38.4897 87.1442L39.8127 87.3791C36.109 108.395 45.7967 124.427 51.9008 132.114L50.8503 132.951Z" fill="#8257E5"/>
<path d="M39.1458 92.5725C41.9378 92.5725 44.2012 90.3091 44.2012 87.5171C44.2012 84.7251 41.9378 82.4617 39.1458 82.4617C36.3538 82.4617 34.0905 84.7251 34.0905 87.5171C34.0905 90.3091 36.3538 92.5725 39.1458 92.5725Z" fill="#8257E5"/>
<path d="M51.2196 137.382C54.0116 137.382 56.2749 135.119 56.2749 132.327C56.2749 129.535 54.0116 127.272 51.2196 127.272C48.4276 127.272 46.1642 129.535 46.1642 132.327C46.1642 135.119 48.4276 137.382 51.2196 137.382Z" fill="#8257E5"/>
<path d="M130.946 92.2337L129.601 92.196C130.071 75.3896 123.646 59.3038 111.508 46.9038C98.8691 33.9893 81.2273 26.6608 63.0585 26.7666L63.0495 25.4221C81.5518 25.3504 99.5773 32.79 112.468 45.9627C124.863 58.6262 131.424 75.0597 130.946 92.2337Z" fill="#8257E5"/>
<path d="M130.184 97.0147C132.976 97.0147 135.239 94.7514 135.239 91.9594C135.239 89.1674 132.976 86.904 130.184 86.904C127.392 86.904 125.128 89.1674 125.128 91.9594C125.128 94.7514 127.392 97.0147 130.184 97.0147Z" fill="#8257E5"/>
<path d="M63.3005 31.2429C66.0925 31.2429 68.3559 28.9796 68.3559 26.1876C68.3559 23.3956 66.0925 21.1322 63.3005 21.1322C60.5085 21.1322 58.2451 23.3956 58.2451 26.1876C58.2451 28.9796 60.5085 31.2429 63.3005 31.2429Z" fill="#8257E5"/>
<path d="M89.4378 129.48C48.8837 127.48 21.3893 100.926 9.17932 76.7431C0.203347 58.9632 -1.20032 41.6387 5.51687 31.5279C9.85158 25.0026 17.3038 21.9174 27.0452 22.595L26.952 23.9359C17.6946 23.2888 10.687 26.175 6.6355 32.2719C0.185421 41.9811 1.61957 58.7875 10.3786 76.1371C22.4165 99.9834 49.5255 126.164 89.5042 128.136L89.4378 129.48Z" fill="#8257E5"/>
<path d="M89.2191 133.776C92.0111 133.776 94.2745 131.512 94.2745 128.72C94.2745 125.928 92.0111 123.665 89.2191 123.665C86.4271 123.665 84.1638 125.928 84.1638 128.72C84.1638 131.512 86.4271 133.776 89.2191 133.776Z" fill="#8257E5"/>
<path d="M32.3856 137.02C13.6449 133.948 0.95268 120.427 0.0491664 102.574C-0.818493 85.3999 9.75297 64.9831 35.3274 58.083L35.677 59.3809C10.8268 66.0856 0.551118 85.8696 1.39368 102.506C2.08566 116.191 10.6475 132.094 32.6043 135.694L32.3856 137.02Z" fill="#8257E5"/>
<path d="M35.2629 63.8662C38.0549 63.8662 40.3183 61.6028 40.3183 58.8108C40.3183 56.0188 38.0549 53.7554 35.2629 53.7554C32.4709 53.7554 30.2075 56.0188 30.2075 58.8108C30.2075 61.6028 32.4709 63.8662 35.2629 63.8662Z" fill="#8257E5"/>
<path d="M119.962 157.256C119.379 157.256 118.789 157.229 118.191 157.174C106.832 156.118 96.544 145.625 90.6658 129.104L91.9333 128.652C97.6304 144.668 107.492 154.829 118.314 155.835C124.141 156.388 129.298 154.04 131.797 149.745C134.384 145.301 133.637 139.552 129.745 133.976L130.847 133.205C135.051 139.229 135.818 145.503 132.959 150.421C130.453 154.727 125.573 157.256 119.962 157.256Z" fill="#8257E5"/>
<path d="M103.186 21.6736L101.908 21.2541C104.963 11.9913 110.358 6.02343 116.715 4.88507C120.629 4.17875 124.476 5.5143 126.745 8.3593C128.988 11.1702 129.35 14.9546 127.742 18.7389L126.507 18.2137C127.916 14.8972 127.62 11.6112 125.697 9.19827C123.736 6.7405 120.385 5.59498 116.954 6.20987C111.097 7.2568 106.081 12.8948 103.186 21.6736Z" fill="#8257E5"/>
<path d="M102.654 26.2862C105.446 26.2862 107.709 24.0228 107.709 21.2308C107.709 18.4388 105.446 16.1754 102.654 16.1754C99.8615 16.1754 97.5981 18.4388 97.5981 21.2308C97.5981 24.0228 99.8615 26.2862 102.654 26.2862Z" fill="#8257E5"/>
</svg>
