<svg version="1.1" xmlns="http://www.w3.org/2000/svg" viewBox="0 0 953.765557393067 824.6422270403133" width="953.765557393067" height="824.6422270403133" filter="invert(93%) hue-rotate(180deg)">
  <!-- svg-source:excalidraw -->
  
  <defs>
    <style class="style-fonts">
      @font-face {
        font-family: "Virgil";
        src: url("https://excalidraw.com/Virgil.woff2");
      }
      @font-face {
        font-family: "Cascadia";
        src: url("https://excalidraw.com/Cascadia.woff2");
      }
      @font-face {
        font-family: "Assistant";
        src: url("https://excalidraw.com/Assistant-Regular.woff2");
      }
    </style>
    
  </defs>
  <rect x="0" y="0" width="953.765557393067" height="824.6422270403133" fill="#ffffff"></rect><g stroke-linecap="round" transform="translate(728.7349336660295 582.5739596935193) rotate(0 69.05882464865579 69.55565072526483)"><path d="M32 0 C58.45 1.87, 90.82 3.62, 106.12 0 M106.12 0 C126.71 -1.62, 141.66 9.2, 138.12 32 M138.12 32 C140.69 51.32, 135.86 69.56, 138.12 107.11 M138.12 107.11 C137.48 129.61, 128.33 136.82, 106.12 139.11 M106.12 139.11 C85.72 139.94, 66.27 141.95, 32 139.11 M32 139.11 C7.92 137.5, -3.54 130.23, 0 107.11 M0 107.11 C0.56 81.59, 2.99 52.59, 0 32 M0 32 C0.49 7.87, 6.78 -2.11, 32 0" stroke="#1e1e1e" stroke-width="2.5" fill="none" stroke-dasharray="8 10"></path></g><g transform="translate(757.5508461093536 618.3454372093698) rotate(0 40.123985290527344 35)"><text x="40.123985290527344" y="24.528" font-family="Virgil, Segoe UI Emoji" font-size="28px" fill="#1e1e1e" text-anchor="middle" style="white-space: pre;" direction="ltr" dominant-baseline="alphabetic">Posts</text><text x="40.123985290527344" y="59.528" font-family="Virgil, Segoe UI Emoji" font-size="28px" fill="#1e1e1e" text-anchor="middle" style="white-space: pre;" direction="ltr" dominant-baseline="alphabetic">DB</text></g><g stroke-linecap="round" transform="translate(439.34992505599575 519.2125367659002) rotate(0 226.55269093371976 125.45088408091941)"><path d="M32 0 C182.22 -2.34, 329.91 -2.97, 421.11 0 M32 0 C171.52 1.79, 310.97 2.13, 421.11 0 M421.11 0 C442.19 1.1, 453.77 7.63, 453.11 32 M421.11 0 C438.32 -4.28, 449.82 10.91, 453.11 32 M453.11 32 C449.45 87.09, 454.74 143.4, 453.11 218.9 M453.11 32 C453.78 81.62, 450.71 130.95, 453.11 218.9 M453.11 218.9 C450.03 236.8, 444.06 251.37, 421.11 250.9 M453.11 218.9 C453.78 240.02, 445.87 249.75, 421.11 250.9 M421.11 250.9 C336.93 252.51, 256.06 252.44, 32 250.9 M421.11 250.9 C335.22 248.26, 251.19 248.06, 32 250.9 M32 250.9 C7.94 253.61, -1.08 243.19, 0 218.9 M32 250.9 C15.2 248.27, -1.14 240.37, 0 218.9 M0 218.9 C5.15 174.4, 3.83 133.41, 0 32 M0 218.9 C-0.16 156.33, -0.85 99.53, 0 32 M0 32 C-1.91 14.39, 12.4 0.98, 32 0 M0 32 C-1.11 14.59, 6.85 -1.88, 32 0" stroke="#1e1e1e" stroke-width="2" fill="none"></path></g><g stroke-linecap="round" transform="translate(470.42233533306535 579.3422904584224) rotate(0 69.05882464865579 69.55565072526483)"><path d="M32 0 C52.65 -0.14, 82.33 -3.5, 106.12 0 M32 0 C60.9 -0.85, 89.36 -0.27, 106.12 0 M106.12 0 C129.07 0.78, 134.6 12.34, 138.12 32 M106.12 0 C129.1 2.44, 140.46 9.71, 138.12 32 M138.12 32 C139.47 51.1, 137.44 77.16, 138.12 107.11 M138.12 32 C138.53 56.55, 138.42 83.36, 138.12 107.11 M138.12 107.11 C141.06 127.35, 125.36 137.47, 106.12 139.11 M138.12 107.11 C137.85 130.49, 131.8 137.06, 106.12 139.11 M106.12 139.11 C90.03 141.27, 71.12 139.44, 32 139.11 M106.12 139.11 C81.53 137.08, 53.97 135.95, 32 139.11 M32 139.11 C10.69 136.21, 1.67 130.38, 0 107.11 M32 139.11 C7.88 143.5, -2.02 131.1, 0 107.11 M0 107.11 C2.33 89.74, -1.03 69.75, 0 32 M0 107.11 C-0.17 79.68, -0.75 50.78, 0 32 M0 32 C-1.51 14.52, 6.92 1.79, 32 0 M0 32 C3.12 8.39, 11.97 -3.31, 32 0" stroke="#1e1e1e" stroke-width="2" fill="none"></path></g><g transform="translate(495.760465240126 613.1264636678368) rotate(0 40.123985290527344 35)"><text x="40.123985290527344" y="24.528" font-family="Virgil, Segoe UI Emoji" font-size="28px" fill="#1e1e1e" text-anchor="middle" style="white-space: pre;" direction="ltr" dominant-baseline="alphabetic">Posts</text><text x="40.123985290527344" y="59.528" font-family="Virgil, Segoe UI Emoji" font-size="28px" fill="#1e1e1e" text-anchor="middle" style="white-space: pre;" direction="ltr" dominant-baseline="alphabetic">API</text></g><g stroke-linecap="round"><g transform="translate(607.2771389498494 648.8887422351345) rotate(0 59.12230311647511 0.4968260766090111)"><path d="M2.36 -1.82 C22.16 -1.62, 101.01 2.51, 120.45 2.7 M0.19 3.36 C19.68 2.63, 99.84 -1.08, 119.41 -1.38" stroke="#1e1e1e" stroke-width="2" fill="none"></path></g></g><mask></mask><g stroke-linecap="round" transform="translate(723.6342544307058 167.49542688068897) rotate(0 69.05882464865579 69.55565072526483)"><path d="M32 0 C56 -0.7, 88.16 -1.18, 106.12 0 M106.12 0 C127.34 -3.27, 138.43 7.77, 138.12 32 M138.12 32 C137.97 59.77, 141.32 86.51, 138.12 107.11 M138.12 107.11 C135.97 126.08, 126.62 137.33, 106.12 139.11 M106.12 139.11 C80.09 135.01, 50.94 141.25, 32 139.11 M32 139.11 C8.84 137.77, 1.23 131.54, 0 107.11 M0 107.11 C1.64 80.94, -4.67 58.25, 0 32 M0 32 C-0.8 11.82, 7.71 -1.96, 32 0" stroke="#1e1e1e" stroke-width="2.5" fill="none" stroke-dasharray="8 10"></path></g><g transform="translate(753.6961690712956 203.26690439653947) rotate(0 38.87798309326172 35)"><text x="38.87798309326172" y="24.528" font-family="Virgil, Segoe UI Emoji" font-size="28px" fill="#1e1e1e" text-anchor="middle" style="white-space: pre;" direction="ltr" dominant-baseline="alphabetic">Users</text><text x="38.87798309326172" y="59.528" font-family="Virgil, Segoe UI Emoji" font-size="28px" fill="#1e1e1e" text-anchor="middle" style="white-space: pre;" direction="ltr" dominant-baseline="alphabetic">DB</text></g><g stroke-linecap="round" transform="translate(434.24924582067206 110.35582859637364) rotate(0 226.55269093371976 127.93961393824094)"><path d="M32 0 C138.34 -0.16, 244.98 0.06, 421.11 0 M32 0 C173.14 4.63, 315.37 4.47, 421.11 0 M421.11 0 C440.29 -2.36, 452.28 8.89, 453.11 32 M421.11 0 C445.86 -1.75, 448.56 12.66, 453.11 32 M453.11 32 C451.6 75.58, 454.65 124.95, 453.11 223.88 M453.11 32 C458.21 87.68, 455.05 145.1, 453.11 223.88 M453.11 223.88 C452.3 246.37, 439.48 253.92, 421.11 255.88 M453.11 223.88 C451.47 241.89, 446.24 254.36, 421.11 255.88 M421.11 255.88 C270.84 259.4, 121.23 255.41, 32 255.88 M421.11 255.88 C340.49 257.65, 262.37 256.82, 32 255.88 M32 255.88 C8.98 251.98, -3.27 247.37, 0 223.88 M32 255.88 C10.22 256.52, 0.8 244.23, 0 223.88 M0 223.88 C-2.74 149.9, -3.55 80.17, 0 32 M0 223.88 C-0.55 175.29, -0.85 122.52, 0 32 M0 32 C3.98 13, 11.55 0.29, 32 0 M0 32 C-1.04 15.2, 10.77 -0.98, 32 0" stroke="#1e1e1e" stroke-width="2" fill="none"></path></g><g stroke-linecap="round" transform="translate(464.0772911690806 167.9968524315744) rotate(0 69.05882464865579 69.55565072526483)"><path d="M32 0 C51.68 -1.68, 73.27 1.86, 106.12 0 M32 0 C48.41 -0.2, 60.8 -1.37, 106.12 0 M106.12 0 C126.62 -1.78, 141.1 9.15, 138.12 32 M106.12 0 C122.91 1.99, 135.09 11.04, 138.12 32 M138.12 32 C138.66 64.4, 137.42 94.34, 138.12 107.11 M138.12 32 C137.63 52.6, 138.86 77.62, 138.12 107.11 M138.12 107.11 C135.16 126.49, 126.03 136.22, 106.12 139.11 M138.12 107.11 C141.92 126.93, 131.41 138.69, 106.12 139.11 M106.12 139.11 C82.19 136.8, 52.65 139.26, 32 139.11 M106.12 139.11 C81.64 136.76, 54.02 136.76, 32 139.11 M32 139.11 C7.4 141.27, -0.39 129, 0 107.11 M32 139.11 C11.47 138.13, 3.37 130.54, 0 107.11 M0 107.11 C-1.43 76.68, -1.21 47.56, 0 32 M0 107.11 C-0.34 89.31, 2.09 75.42, 0 32 M0 32 C0.88 10.96, 9.76 3.94, 32 0 M0 32 C0.11 9.68, 9.59 -0.8, 32 0" stroke="#1e1e1e" stroke-width="2" fill="none"></path></g><g transform="translate(497.5774236396178 201.78102564098876) rotate(0 31.96198272705078 35)"><text x="31.96198272705078" y="24.528" font-family="Virgil, Segoe UI Emoji" font-size="28px" fill="#1e1e1e" text-anchor="middle" style="white-space: pre;" direction="ltr" dominant-baseline="alphabetic">Auth</text><text x="31.96198272705078" y="59.528" font-family="Virgil, Segoe UI Emoji" font-size="28px" fill="#1e1e1e" text-anchor="middle" style="white-space: pre;" direction="ltr" dominant-baseline="alphabetic">API</text></g><g stroke-linecap="round"><g transform="translate(602.1764597145257 245.0094937802511) rotate(0 59.12230311647511 0.49682607660902534)"><path d="M0.45 -2.76 C20.45 -2.83, 97.99 0.72, 117.97 1.35 M-2.75 1.92 C17.04 2.2, 95.19 4.81, 115.59 5.17" stroke="#1e1e1e" stroke-width="2" fill="none"></path></g></g><mask></mask><g stroke-linecap="round" transform="translate(49.822185673970466 377.7930998243592) rotate(0 73.41410189896851 73.28874551124717)"><path d="M32 0 C60.56 3.39, 97.67 -2.77, 114.83 0 M32 0 C59.63 -1.22, 89.75 -1.88, 114.83 0 M114.83 0 C135.95 2.26, 150.79 8.54, 146.83 32 M114.83 0 C136.4 -1.32, 143.13 14.1, 146.83 32 M146.83 32 C149.37 64.71, 144.82 89.28, 146.83 114.58 M146.83 32 C144.22 59.07, 146.59 84.85, 146.83 114.58 M146.83 114.58 C145.68 139.59, 139.58 150.08, 114.83 146.58 M146.83 114.58 C144.23 134.38, 139.43 146.6, 114.83 146.58 M114.83 146.58 C86.88 146.35, 63.94 145.2, 32 146.58 M114.83 146.58 C83.94 146.85, 50.56 145.18, 32 146.58 M32 146.58 C8.31 150.42, 0.14 139.12, 0 114.58 M32 146.58 C7.99 146.12, -2.88 139.78, 0 114.58 M0 114.58 C-1.63 87.84, -0.76 62.94, 0 32 M0 114.58 C0.7 88.01, 3.04 61.03, 0 32 M0 32 C-2.56 8.74, 7.94 2.24, 32 0 M0 32 C1.73 6.39, 11.93 0.62, 32 0" stroke="#1e1e1e" stroke-width="2" fill="none"></path></g><g transform="translate(54.30779635280339 419.04346260573817) rotate(0 65.95396423339844 35)"><text x="65.95396423339844" y="24.528" font-family="Virgil, Segoe UI Emoji" font-size="28px" fill="#1e1e1e" text-anchor="middle" style="white-space: pre;" direction="ltr" dominant-baseline="alphabetic">Front-End</text><text x="65.95396423339844" y="59.528" font-family="Virgil, Segoe UI Emoji" font-size="28px" fill="#1e1e1e" text-anchor="middle" style="white-space: pre;" direction="ltr" dominant-baseline="alphabetic">UI</text></g><g stroke-linecap="round"><g transform="translate(189.18762879196004 385.1305041165856) rotate(0 121.32558054442524 -72.17316586232468)"><path d="M-2.65 -1.9 C37.62 -26.81, 199.75 -122.9, 240.53 -146.72 M1.11 3.25 C42.35 -20.22, 205.98 -120.18, 245.78 -144.38" stroke="#1e1e1e" stroke-width="1" fill="none"></path></g></g><mask></mask><g stroke-linecap="round"><g transform="translate(191.67635864928172 512.0557268399841) rotate(0 123.19212793741616 69.06225354067271)"><path d="M0.56 -1.51 C41.95 22.19, 206.24 117.66, 247.35 140.6 M-2.57 3.84 C38.62 26.96, 204.23 114.54, 245.64 136.93" stroke="#1e1e1e" stroke-width="1" fill="none"></path></g></g><mask></mask><g stroke-linecap="round"><g transform="translate(668.2681263263567 365.22066525801324) rotate(0 1.8665473929911514 77.15062557696777)"><path d="M0.51 0.87 C0.82 27.22, 0.86 131.28, 1.7 156.96 M-2.66 -1.13 C-1.46 24.61, 5.77 126.81, 7 153.39" stroke="#1e1e1e" stroke-width="1" fill="none"></path></g></g><mask></mask><g stroke-linecap="round" transform="translate(10 10) rotate(0 466.8827786965335 402.32111352015664)"><path d="M32 0 C347.7 -3.73, 667.63 -3.75, 901.77 0 M32 0 C255.83 2.54, 478.57 2.6, 901.77 0 M901.77 0 C920.4 1.76, 937.69 13.53, 933.77 32 M901.77 0 C925.74 2.28, 936.57 11.43, 933.77 32 M933.77 32 C933.62 197.99, 933.63 362.77, 933.77 772.64 M933.77 32 C936.71 181.51, 937.87 329.61, 933.77 772.64 M933.77 772.64 C934.02 791.06, 919.25 801.53, 901.77 804.64 M933.77 772.64 C932.07 791.87, 921.86 803.71, 901.77 804.64 M901.77 804.64 C577.05 799.21, 254.67 798.48, 32 804.64 M901.77 804.64 C687.09 806.42, 471.25 806.11, 32 804.64 M32 804.64 C11.28 806.55, 0.71 791.19, 0 772.64 M32 804.64 C9.74 801.22, 4.16 796.08, 0 772.64 M0 772.64 C5.53 494.51, 3.24 215.53, 0 32 M0 772.64 C-4.79 505.11, -5.15 237.55, 0 32 M0 32 C-0.41 11.92, 11.87 -1.28, 32 0 M0 32 C-2.54 10.43, 9.99 -3.8, 32 0" stroke="#1e1e1e" stroke-width="1" fill="none"></path></g><g transform="translate(357.93687080902737 22.232736559734576) rotate(0 108.75196075439453 17.5)"><text x="108.75196075439453" y="24.528" font-family="Virgil, Segoe UI Emoji" font-size="28px" fill="#1e1e1e" text-anchor="middle" style="white-space: pre;" direction="ltr" dominant-baseline="alphabetic">Docker Compose</text></g></svg>